<svg xmlns="http://www.w3.org/2000/svg" viewBox="0 0 900 420" font-family="Segoe UI, Arial, sans-serif">
  <defs>
    <marker id="arrow" markerWidth="10" markerHeight="10" refX="8" refY="3" orient="auto">
      <path d="M0,0 L8,3 L0,6 Z" fill="#334155"/>
    </marker>
  </defs>
  <rect width="900" height="420" fill="#f8fafc"/>
  <text x="450" y="28" text-anchor="middle" font-size="18" font-weight="bold" fill="#0f172a">2Care.ai  Real-Time Multilingual Voice AI Agent</text>

  <rect x="30" y="60" width="120" height="50" rx="8" fill="#dbeafe" stroke="#2563eb"/>
  <text x="90" y="90" text-anchor="middle" font-size="12">User Speech</text>

  <rect x="180" y="60" width="120" height="50" rx="8" fill="#dbeafe" stroke="#2563eb"/>
  <text x="240" y="90" text-anchor="middle" font-size="12">WebSocket</text>

  <rect x="330" y="60" width="100" height="50" rx="8" fill="#fef3c7" stroke="#d97706"/>
  <text x="380" y="90" text-anchor="middle" font-size="12">STT</text>

  <rect x="450" y="60" width="120" height="50" rx="8" fill="#fef3c7" stroke="#d97706"/>
  <text x="510" y="85" text-anchor="middle" font-size="11">Language</text>
  <text x="510" y="100" text-anchor="middle" font-size="11">Detection</text>

  <rect x="590" y="60" width="100" height="50" rx="8" fill="#dcfce7" stroke="#16a34a"/>
  <text x="640" y="90" text-anchor="middle" font-size="12">LLM Agent</text>

  <rect x="710" y="60" width="100" height="50" rx="8" fill="#dcfce7" stroke="#16a34a"/>
  <text x="760" y="90" text-anchor="middle" font-size="12">Tools</text>

  <rect x="330" y="160" width="140" height="50" rx="8" fill="#ede9fe" stroke="#7c3aed"/>
  <text x="400" y="185" text-anchor="middle" font-size="11">Session Memory</text>
  <text x="400" y="200" text-anchor="middle" font-size="11">(Redis)</text>

  <rect x="500" y="160" width="150" height="50" rx="8" fill="#ede9fe" stroke="#7c3aed"/>
  <text x="575" y="185" text-anchor="middle" font-size="11">Persistent Memory</text>
  <text x="575" y="200" text-anchor="middle" font-size="11">(Redis)</text>

  <rect x="330" y="250" width="160" height="50" rx="8" fill="#fce7f3" stroke="#db2777"/>
  <text x="410" y="275" text-anchor="middle" font-size="11">Appointment Engine</text>
  <text x="410" y="290" text-anchor="middle" font-size="11">+ PostgreSQL</text>

  <rect x="530" y="250" width="120" height="50" rx="8" fill="#fce7f3" stroke="#db2777"/>
  <text x="590" y="280" text-anchor="middle" font-size="12">Campaigns</text>

  <rect x="710" y="160" width="100" height="50" rx="8" fill="#fef3c7" stroke="#d97706"/>
  <text x="760" y="190" text-anchor="middle" font-size="12">TTS</text>

  <rect x="710" y="250" width="120" height="50" rx="8" fill="#dbeafe" stroke="#2563eb"/>
  <text x="770" y="275" text-anchor="middle" font-size="11">Audio Response</text>
  <text x="770" y="290" text-anchor="middle" font-size="11">&lt;450ms</text>

  <line x1="150" y1="85" x2="180" y2="85" stroke="#334155" marker-end="url(#arrow)"/>
  <line x1="300" y1="85" x2="330" y2="85" stroke="#334155" marker-end="url(#arrow)"/>
  <line x1="430" y1="85" x2="450" y2="85" stroke="#334155" marker-end="url(#arrow)"/>
  <line x1="570" y1="85" x2="590" y2="85" stroke="#334155" marker-end="url(#arrow)"/>
  <line x1="690" y1="85" x2="710" y2="85" stroke="#334155" marker-end="url(#arrow)"/>
  <line x1="640" y1="110" x2="400" y2="160" stroke="#334155" marker-end="url(#arrow)"/>
  <line x1="640" y1="110" x2="575" y2="160" stroke="#334155" marker-end="url(#arrow)"/>
  <line x1="760" y1="110" x2="410" y2="250" stroke="#334155" marker-end="url(#arrow)"/>
  <line x1="760" y1="110" x2="760" y2="160" stroke="#334155" marker-end="url(#arrow)"/>
  <line x1="760" y1="210" x2="770" y2="250" stroke="#334155" marker-end="url(#arrow)"/>
  <line x1="590" y1="300" x2="240" y2="110" stroke="#334155" stroke-dasharray="4" marker-end="url(#arrow)"/>
</svg>
